<svg width="24" height="22" viewBox="0 0 24 22" fill="none"
  xmlns="http://www.w3.org/2000/svg">
  <path d="M17.8896 19.8182H6.10955C5.79187 19.8185 5.48326 19.7122 5.23309 19.5164C4.98291 19.3206 4.80562 19.0466 4.72955 18.7382L2.07955 8.12818C2.05369 8.02489 2.05174 7.91706 2.07383 7.8129C2.09593 7.70874 2.1415 7.611 2.20707 7.5271C2.27264 7.44321 2.35649 7.37538 2.45223 7.32878C2.54797 7.28218 2.65307 7.25803 2.75955 7.25818H21.2396C21.346 7.25803 21.4511 7.28218 21.5469 7.32878C21.6426 7.37538 21.7265 7.44321 21.792 7.5271C21.8576 7.611 21.9032 7.70874 21.9253 7.8129C21.9474 7.91706 21.9454 8.02489 21.9196 8.12818L19.2696 18.7382C19.1935 19.0466 19.0162 19.3206 18.766 19.5164C18.5158 19.7122 18.2072 19.8185 17.8896 19.8182V19.8182Z" stroke="#151515" strokeWidth="2.5" strokeLinecap="round" strokeLinejoin="round" />
  <path d="M9.79941 2.11823L6.89941 7.25823" stroke="#151515" stroke-width="2.5" stroke-linecap="round" stroke-linejoin="round" />
  <path d="M13.8799 2.11823L16.7899 7.25823" stroke="#151515" stroke-width="2.5" stroke-linecap="round" stroke-linejoin="round" />
</svg>

