<svg width="178" height="19" viewBox="0 0 178 19" fill="none"
  xmlns="http://www.w3.org/2000/svg">
  <path d="M4.37168 10.7926H10.9051V7.27087H4.37168V3.55348H12.357V0.0317383H0.5V17.6404H4.37168V10.7926Z" fill="#151515" />
  <path d="M13.6832 11.0372V17.6404H17.3129V11.0372C17.3129 9.00728 18.9342 7.36869 20.9426 7.36869V4.04261H20.4586C16.4418 4.04261 13.6832 7.17304 13.6832 11.0372Z" fill="#151515" />
  <path d="M29.0574 4.04261C25.0406 4.04261 21.798 7.17304 21.798 11.0372C21.798 14.9013 25.0406 18.0317 29.0574 18.0317C32.2516 18.0317 34.9618 16.0508 35.9297 13.2872H31.9128C31.2595 14.1432 30.2189 14.7057 29.0574 14.7057C27.4846 14.7057 26.1779 13.7029 25.6455 12.3089H36.1959C36.2685 11.8932 36.3169 11.4774 36.3169 11.0372C36.3169 7.17304 33.0743 4.04261 29.0574 4.04261ZM25.6455 9.76543C26.1779 8.37141 27.4846 7.36869 29.0574 7.36869C30.6061 7.36869 31.937 8.37141 32.4694 9.76543H25.6455Z" fill="#151515" />
  <path d="M44.2453 9.86326C42.8418 9.69206 41.2447 9.08065 41.2447 8.29804C41.2447 7.41761 41.9949 7.12413 42.7934 7.12413C43.5919 7.12413 44.3421 7.41761 44.3421 8.54261H47.9718C47.9718 5.70565 45.6004 4.04261 42.7934 4.04261C39.9864 4.04261 37.615 5.70565 37.615 8.39587C37.615 10.4747 40.059 12.0399 42.5998 12.3578C43.6887 12.5046 44.4873 13.0671 44.4873 13.6785C44.4873 14.5345 43.5919 14.9502 42.7934 14.9502C41.9949 14.9502 41.0995 14.6567 41.0995 13.5317H37.4698C37.4698 16.3687 39.9864 18.0317 42.7934 18.0317C45.6004 18.0317 48.117 16.3687 48.117 13.5317C48.117 11.3062 46.1569 10.0834 44.2453 9.86326Z" fill="#151515" />
  <path d="M56.7821 4.04261C55.5722 4.04261 54.4833 4.48282 53.6364 5.21652V0.0317383H50.0067V17.6404H53.6364V11.0127C53.6364 9.00728 54.7737 7.36869 56.7821 7.36869C58.7906 7.36869 59.9279 9.00728 59.9279 11.0372V17.6404H63.5576V11.0372C63.5576 7.17304 60.799 4.04261 56.7821 4.04261Z" fill="#151515" />
  <path d="M72.5175 4.04261C68.5006 4.04261 65.742 7.17304 65.742 11.0372V17.6404H69.3717V11.0372C69.3717 9.00728 70.509 7.36869 72.5175 7.36869C74.5259 7.36869 75.6632 9.00728 75.6632 11.0372V17.6404H79.2929V11.0372C79.2929 7.17304 76.5343 4.04261 72.5175 4.04261Z" fill="#151515" />
  <path d="M88.1346 4.04261C84.1178 4.04261 80.8752 7.17304 80.8752 11.0372C80.8752 14.9013 84.1178 18.0317 88.1346 18.0317C91.3288 18.0317 94.039 16.0508 95.0069 13.2872H90.99C90.3367 14.1432 89.2962 14.7057 88.1346 14.7057C86.5618 14.7057 85.2551 13.7029 84.7227 12.3089H95.2731C95.3457 11.8932 95.394 11.4774 95.394 11.0372C95.394 7.17304 92.1515 4.04261 88.1346 4.04261ZM84.7227 9.76543C85.2551 8.37141 86.5618 7.36869 88.1346 7.36869C89.6833 7.36869 91.0142 8.37141 91.5466 9.76543H84.7227Z" fill="#151515" />
  <path d="M103.322 9.86326C101.919 9.69206 100.322 9.08065 100.322 8.29804C100.322 7.41761 101.072 7.12413 101.871 7.12413C102.669 7.12413 103.419 7.41761 103.419 8.54261H107.049C107.049 5.70565 104.678 4.04261 101.871 4.04261C99.0636 4.04261 96.6922 5.70565 96.6922 8.39587C96.6922 10.4747 99.1362 12.0399 101.677 12.3578C102.766 12.5046 103.564 13.0671 103.564 13.6785C103.564 14.5345 102.669 14.9502 101.871 14.9502C101.072 14.9502 100.177 14.6567 100.177 13.5317H96.547C96.547 16.3687 99.0636 18.0317 101.871 18.0317C104.678 18.0317 107.194 16.3687 107.194 13.5317C107.194 11.3062 105.234 10.0834 103.322 9.86326Z" fill="#151515" />
  <path d="M115.617 4.04261C111.6 4.04261 108.358 7.17304 108.358 11.0372C108.358 14.9013 111.6 18.0317 115.617 18.0317C118.811 18.0317 121.522 16.0508 122.49 13.2872H118.473C117.819 14.1432 116.779 14.7057 115.617 14.7057C114.044 14.7057 112.738 13.7029 112.205 12.3089H122.756C122.828 11.8932 122.877 11.4774 122.877 11.0372C122.877 7.17304 119.634 4.04261 115.617 4.04261ZM112.205 9.76543C112.738 8.37141 114.044 7.36869 115.617 7.36869C117.166 7.36869 118.497 8.37141 119.029 9.76543H112.205Z" fill="#151515" />
  <path d="M131.096 7.36869C132.499 7.36869 133.685 8.1513 134.314 9.32522H138.137C137.339 6.29261 134.483 4.04261 131.096 4.04261C127.079 4.04261 123.836 7.17304 123.836 11.0372C123.836 14.9013 127.079 18.0317 131.096 18.0317C134.459 18.0317 137.266 15.8307 138.089 12.847H134.193C133.588 13.9475 132.451 14.7057 131.096 14.7057C129.087 14.7057 127.466 13.0671 127.466 11.0372C127.466 9.00728 129.087 7.36869 131.096 7.36869Z" fill="#151515" />
  <path d="M153.429 11.0372C153.429 7.17304 150.211 4.04261 146.218 4.04261C142.226 4.04261 139.007 7.17304 139.007 11.0372C139.007 14.9013 142.226 18.0317 146.218 18.0317C150.211 18.0317 153.429 14.9013 153.429 11.0372ZM149.8 11.0372C149.8 13.0671 148.202 14.7057 146.218 14.7057C144.234 14.7057 142.637 13.0671 142.637 11.0372C142.637 9.00728 144.234 7.36869 146.218 7.36869C148.202 7.36869 149.8 9.00728 149.8 11.0372Z" fill="#151515" />
  <path d="M170.967 4.04261C169.079 4.04261 167.385 4.89859 166.248 6.26815C165.111 4.89859 163.417 4.04261 161.529 4.04261C157.512 4.04261 154.996 7.17304 154.996 11.0372V17.6404H158.626V11.0372C158.626 9.00728 159.521 7.36869 161.529 7.36869C163.538 7.36869 164.433 9.00728 164.433 11.0372V17.6404H168.063V11.0372C168.063 9.00728 168.958 7.36869 170.967 7.36869C172.975 7.36869 173.87 9.00728 173.87 11.0372V17.6404H177.5V11.0372C177.5 7.17304 174.983 4.04261 170.967 4.04261Z" fill="#151515" />
</svg>